<svg xmlns="http://www.w3.org/2000/svg" viewBox="0 0 48 48">
  <path d="M24 6C23.048235 6 22.141037 6.095179 21.275391 6.2265625 A 1.50015 1.50015 0 1 0 21.724609 9.1914062C22.492963 9.0747896 23.247765 9 24 9C32.3024 9 39 15.6976 39 24C39 32.3024 32.3024 39 24 39C15.6976 39 9 32.3024 9 24C9 20.065743 10.527501 16.519538 13 13.849609L13 17.5 A 1.50015 1.50015 0 1 0 16 17.5L16 10.5 A 1.50015 1.50015 0 0 0 14.5 9L7.5 9 A 1.50015 1.50015 0 1 0 7.5 12L10.605469 12C7.7471496 15.184124 6 19.390676 6 24C6 33.9236 14.0764 42 24 42C33.9236 42 42 33.9236 42 24C42 14.0764 33.9236 6 24 6 z" fill="#FFFFFF" />
</svg>